<svg xmlns="http://www.w3.org/2000/svg" height="20" viewBox="0 -960 960 960" width="20" ><path fill="#fff" d="M80 0v-80h800V0H80Zm160-286.923h42.923l352-351.769-21.308-22.077-21.846-21.077-351.769 352v42.923Zm-40 40v-100l448.769-448.539q6.385-6.385 13.962-9.308t15.438-2.923q7.861 0 15.231 2.923 7.369 2.923 13.985 9.539l41.154 41.385q6.615 6.384 9.423 13.818 2.807 7.434 2.807 15.363 0 7.434-2.924 15.133-2.925 7.699-9.306 14.071L300-246.923H200Zm520.769-477.846-42.923-42.924 42.923 42.924Zm-85.846 86.077-21.308-22.077-21.846-21.077 43.154 43.154Z"/></svg>